<?xml version="1.0" encoding="iso-8859-1"?>
<!-- Generator: Adobe Illustrator 16.0.0, SVG Export Plug-In . SVG Version: 6.00 Build 0)  -->
<!DOCTYPE svg PUBLIC "-//W3C//DTD SVG 1.1//EN" "http://www.w3.org/Graphics/SVG/1.1/DTD/svg11.dtd">
<svg version="1.1" id="Capa_1" xmlns="http://www.w3.org/2000/svg" xmlns:xlink="http://www.w3.org/1999/xlink" x="0px" y="0px"
	 width="394.357px" height="394.357px" viewBox="0 0 394.357 394.357" style="enable-background:new 0 0 394.357 394.357;"
	 xml:space="preserve">
<g>
	<path d="M295,176.828v172.869c0,14.188-11.502,25.701-25.696,25.701s-25.697-11.513-25.697-25.701v-7.583
		c-2.292,0.343-4.618,0.579-7.009,0.579h-79.901c-25.804,0-46.721-20.913-46.721-46.72v-10.748h-20.05
		c-8.715,0-12.416-4.52-13.98-11.299c-44.86-9.823-78.922-58.397-47.403-103.057c13.247-18.764,41.543-39.344,32.084-65.524
		c-9.513-26.339-39.647-41.294-57.097-61.91c-11.599-13.694,8.12-33.62,19.809-19.809C40.814,44.269,66.122,58.337,80.199,81.93
		c12.938,21.678,13.795,48.255-0.733,69.514c-12.354,18.071-38.093,36.635-34.897,61.065c2.209,16.864,15.981,28.695,31.725,33.313
		l0.012-0.624c1.759-5.959,5.542-9.811,13.615-9.811h20.049v-4.832c0-25.796,20.917-46.718,46.72-46.718h79.902
		c2.392,0,4.717,0.241,7.01,0.583v-7.586c0-14.189,11.504-25.696,25.698-25.696S295,162.64,295,176.828z M394.357,215.293
		c0-10.062-8.166-18.221-18.224-18.221H302.94v36.443h73.193C386.196,233.516,394.357,225.362,394.357,215.293z M376.133,291.765
		H302.94v36.444h73.193c10.058,0,18.224-8.159,18.224-18.223C394.357,299.924,386.196,291.765,376.133,291.765z"/>
</g>
<g>
</g>
<g>
</g>
<g>
</g>
<g>
</g>
<g>
</g>
<g>
</g>
<g>
</g>
<g>
</g>
<g>
</g>
<g>
</g>
<g>
</g>
<g>
</g>
<g>
</g>
<g>
</g>
<g>
</g>
</svg>
